<svg width="11" height="12" viewBox="0 0 11 12" fill="none" xmlns="http://www.w3.org/2000/svg">
<path d="M8.5 9.11865C8.76522 9.11865 9.01957 9.22401 9.20711 9.41155C9.39464 9.59908 9.5 9.85344 9.5 10.1187C9.5 10.3839 9.39464 10.6382 9.20711 10.8258C9.01957 11.0133 8.76522 11.1187 8.5 11.1187C8.23478 11.1187 7.98043 11.0133 7.79289 10.8258C7.60536 10.6382 7.5 10.3839 7.5 10.1187C7.5 9.56365 7.945 9.11865 8.5 9.11865ZM0.5 1.11865H2.135L2.605 2.11865H10C10.1326 2.11865 10.2598 2.17133 10.3536 2.2651C10.4473 2.35887 10.5 2.48604 10.5 2.61865C10.5 2.70365 10.475 2.78865 10.44 2.86865L8.65 6.10365C8.48 6.40865 8.15 6.61865 7.775 6.61865H4.05L3.6 7.43365L3.585 7.49365C3.585 7.5268 3.59817 7.5586 3.62161 7.58204C3.64505 7.60548 3.67685 7.61865 3.71 7.61865H9.5V8.61865H3.5C3.23478 8.61865 2.98043 8.5133 2.79289 8.32576C2.60536 8.13822 2.5 7.88387 2.5 7.61865C2.5 7.44365 2.545 7.27865 2.62 7.13865L3.3 5.91365L1.5 2.11865H0.5V1.11865ZM3.5 9.11865C3.76522 9.11865 4.01957 9.22401 4.20711 9.41155C4.39464 9.59908 4.5 9.85344 4.5 10.1187C4.5 10.3839 4.39464 10.6382 4.20711 10.8258C4.01957 11.0133 3.76522 11.1187 3.5 11.1187C3.23478 11.1187 2.98043 11.0133 2.79289 10.8258C2.60536 10.6382 2.5 10.3839 2.5 10.1187C2.5 9.56365 2.945 9.11865 3.5 9.11865ZM8 5.61865L9.39 3.11865H3.07L4.25 5.61865H8Z" fill="#FF6996" stroke="#F8E1E7" stroke-width="0.5"/>
</svg>
