<svg width="16" height="17" viewBox="0 0 16 17" fill="none" xmlns="http://www.w3.org/2000/svg">
<path d="M11.3333 12.2172C11.6869 12.2172 12.0261 12.3577 12.2761 12.6077C12.5261 12.8578 12.6666 13.1969 12.6666 13.5505C12.6666 13.9042 12.5261 14.2433 12.2761 14.4933C12.0261 14.7434 11.6869 14.8839 11.3333 14.8839C10.9797 14.8839 10.6405 14.7434 10.3905 14.4933C10.1404 14.2433 9.99996 13.9042 9.99996 13.5505C9.99996 12.8105 10.5933 12.2172 11.3333 12.2172ZM0.666626 1.55054H2.84663L3.47329 2.88387H13.3333C13.5101 2.88387 13.6797 2.95411 13.8047 3.07913C13.9297 3.20416 14 3.37373 14 3.55054C14 3.66387 13.9666 3.7772 13.92 3.88387L11.5333 8.1972C11.3066 8.60387 10.8666 8.88387 10.3666 8.88387H5.39996L4.79996 9.97054L4.77996 10.0505C4.77996 10.0947 4.79752 10.1371 4.82877 10.1684C4.86003 10.1996 4.90242 10.2172 4.94663 10.2172H12.6666V11.5505H4.66663C4.313 11.5505 3.97387 11.4101 3.72382 11.16C3.47377 10.91 3.33329 10.5708 3.33329 10.2172C3.33329 9.98387 3.39329 9.76387 3.49329 9.5772L4.39996 7.94387L1.99996 2.88387H0.666626V1.55054ZM4.66663 12.2172C5.02025 12.2172 5.35939 12.3577 5.60943 12.6077C5.85948 12.8578 5.99996 13.1969 5.99996 13.5505C5.99996 13.9042 5.85948 14.2433 5.60943 14.4933C5.35939 14.7434 5.02025 14.8839 4.66663 14.8839C4.313 14.8839 3.97387 14.7434 3.72382 14.4933C3.47377 14.2433 3.33329 13.9042 3.33329 13.5505C3.33329 12.8105 3.92663 12.2172 4.66663 12.2172ZM10.6666 7.55054L12.52 4.2172H4.09329L5.66663 7.55054H10.6666Z" fill="white" stroke="#FF6996" stroke-width="0.5"/>
</svg>
