<svg width="146" height="77" viewBox="0 0 146 77" fill="none" xmlns="http://www.w3.org/2000/svg">
<g opacity="0.5">
<rect x="0.590659" y="0.458824" width="144.442" height="75.9045" rx="6.88235" stroke="#D0D0D0" stroke-width="0.917647"/>
<path d="M83.6687 30.554C82.402 30.554 81.4973 29.4684 81.4973 28.3827C81.4973 27.116 82.583 26.2113 83.6687 26.2113C84.7544 26.2113 85.84 27.297 85.84 28.3827C86.021 29.4684 84.9353 30.554 83.6687 30.554ZM83.6687 21.8686C80.2307 21.8686 77.3355 24.7637 77.3355 28.2017C77.3355 32.9063 83.6687 39.9633 83.6687 39.9633C83.6687 39.9633 90.0018 32.9063 90.0018 28.2017C90.0018 24.7637 87.1067 21.8686 83.6687 21.8686ZM77.1546 20.6019C76.6117 18.2496 74.4404 16.4401 71.9071 16.4401C68.831 16.4401 66.4787 18.7925 66.4787 21.8686C66.4787 24.9447 68.831 27.297 71.9071 27.297C72.6309 27.297 73.1737 27.116 73.7166 26.9351C74.0785 24.4018 75.3451 22.2305 77.1546 20.6019ZM73.7166 29.1065H62.8597C62.8597 28.1467 62.4784 27.2262 61.7998 26.5475C61.1211 25.8688 60.2006 25.4875 59.2408 25.4875V18.2496C60.2006 18.2496 61.1211 17.8683 61.7998 17.1896C62.4784 16.511 62.8597 15.5905 62.8597 14.6307H80.9545C80.9545 15.5905 81.3357 16.511 82.0144 17.1896C82.6931 17.8683 83.6136 18.2496 84.5734 18.2496C84.5734 18.2496 86.3829 18.2496 88.1924 19.3353V11.0117H55.6218V32.7254H74.6213C74.2594 31.4588 73.8975 30.3731 73.7166 29.1065Z" fill="#FF6996"/>
<path d="M34.8433 58.4063H33.6233C33.5763 58.1456 33.489 57.9162 33.3613 57.7181C33.2335 57.52 33.0771 57.3518 32.892 57.2137C32.7069 57.0755 32.4997 56.9712 32.2703 56.9008C32.0435 56.8304 31.8023 56.7952 31.5468 56.7952C31.0854 56.7952 30.6722 56.9112 30.3072 57.1433C29.9449 57.3753 29.6581 57.7155 29.4469 58.1639C29.2384 58.6123 29.1341 59.1597 29.1341 59.8063C29.1341 60.458 29.2384 61.0081 29.4469 61.4565C29.6581 61.9049 29.9462 62.2438 30.3111 62.4732C30.6761 62.7026 31.0867 62.8173 31.5429 62.8173C31.7958 62.8173 32.0356 62.7834 32.2624 62.7156C32.4918 62.6452 32.6991 62.5423 32.8842 62.4067C33.0693 62.2711 33.2257 62.1056 33.3534 61.9101C33.4838 61.712 33.5737 61.4851 33.6233 61.2297L34.8433 61.2336C34.7781 61.6272 34.6517 61.9896 34.464 62.3207C34.2789 62.6491 34.0404 62.9333 33.7484 63.1731C33.459 63.4104 33.1279 63.5942 32.7552 63.7245C32.3824 63.8549 31.9757 63.92 31.5351 63.92C30.8416 63.92 30.2238 63.7558 29.6816 63.4273C29.1393 63.0962 28.7118 62.6231 28.3989 62.0078C28.0887 61.3926 27.9336 60.6587 27.9336 59.8063C27.9336 58.9512 28.09 58.2173 28.4028 57.6047C28.7157 56.9895 29.1432 56.5176 29.6855 56.1891C30.2277 55.858 30.8443 55.6925 31.5351 55.6925C31.96 55.6925 32.3563 55.7538 32.7239 55.8763C33.0941 55.9962 33.4264 56.1735 33.721 56.4081C34.0156 56.6401 34.2594 56.9243 34.4523 57.2606C34.6452 57.5943 34.7755 57.9762 34.8433 58.4063ZM37.9433 63.9435C37.5627 63.9435 37.2186 63.8731 36.911 63.7323C36.6033 63.589 36.3596 63.3817 36.1797 63.1106C36.0024 62.8395 35.9138 62.5071 35.9138 62.1134C35.9138 61.7745 35.979 61.4956 36.1093 61.2766C36.2397 61.0576 36.4156 60.8842 36.6372 60.7565C36.8588 60.6288 37.1065 60.5323 37.3802 60.4671C37.6539 60.402 37.9329 60.3524 38.217 60.3185C38.5768 60.2768 38.8688 60.2429 39.093 60.2169C39.3172 60.1882 39.4801 60.1426 39.5818 60.08C39.6835 60.0174 39.7343 59.9158 39.7343 59.775V59.7476C39.7343 59.4061 39.6378 59.1415 39.4449 58.9538C39.2546 58.7661 38.9705 58.6722 38.5924 58.6722C38.1988 58.6722 37.8886 58.7596 37.6618 58.9342C37.4376 59.1063 37.2824 59.2979 37.1964 59.5091L36.0976 59.2588C36.2279 58.8938 36.4182 58.5993 36.6685 58.3751C36.9214 58.1482 37.2121 57.984 37.5405 57.8823C37.869 57.7781 38.2144 57.7259 38.5768 57.7259C38.8166 57.7259 39.0708 57.7546 39.3393 57.812C39.6105 57.8667 39.8633 57.9684 40.098 58.117C40.3352 58.2656 40.5294 58.478 40.6806 58.7544C40.8318 59.0281 40.9074 59.3839 40.9074 59.8219V63.8105H39.7656V62.9894H39.7186C39.643 63.1406 39.5296 63.2892 39.3784 63.4351C39.2272 63.5811 39.033 63.7024 38.7958 63.7988C38.5586 63.8953 38.2744 63.9435 37.9433 63.9435ZM38.1975 63.005C38.5208 63.005 38.7971 62.9411 39.0265 62.8134C39.2585 62.6856 39.4345 62.5188 39.5544 62.3129C39.6769 62.1043 39.7382 61.8814 39.7382 61.6442V60.8699C39.6965 60.9116 39.6157 60.9507 39.4958 60.9872C39.3784 61.0211 39.2442 61.0511 39.093 61.0772C38.9418 61.1006 38.7945 61.1228 38.6511 61.1436C38.5077 61.1619 38.3878 61.1775 38.2913 61.1906C38.0645 61.2192 37.8573 61.2675 37.6696 61.3352C37.4845 61.403 37.3359 61.5008 37.2238 61.6285C37.1143 61.7537 37.0596 61.9205 37.0596 62.1291C37.0596 62.4184 37.1664 62.6374 37.3802 62.786C37.594 62.932 37.8664 63.005 38.1975 63.005ZM46.9656 59.2705L45.9059 59.4582C45.8616 59.3227 45.7912 59.1936 45.6948 59.0711C45.6009 58.9486 45.4732 58.8482 45.3115 58.77C45.1499 58.6918 44.9479 58.6527 44.7054 58.6527C44.3743 58.6527 44.098 58.727 43.8764 58.8756C43.6548 59.0216 43.544 59.2106 43.544 59.4426C43.544 59.6433 43.6183 59.805 43.7669 59.9275C43.9155 60.05 44.1554 60.1504 44.4864 60.2286L45.4406 60.4476C45.9933 60.5753 46.4052 60.7721 46.6763 61.0381C46.9474 61.304 47.083 61.6494 47.083 62.0743C47.083 62.4341 46.9787 62.7547 46.7701 63.0363C46.5642 63.3152 46.2761 63.5342 45.9059 63.6932C45.5383 63.8523 45.1121 63.9318 44.6272 63.9318C43.9546 63.9318 43.4059 63.7884 42.9809 63.5016C42.556 63.2123 42.2953 62.8017 42.1988 62.2698L43.3289 62.0978C43.3993 62.3924 43.544 62.6153 43.763 62.7665C43.982 62.9151 44.2675 62.9894 44.6194 62.9894C45.0026 62.9894 45.3089 62.9098 45.5383 62.7508C45.7678 62.5892 45.8825 62.3924 45.8825 62.1603C45.8825 61.9726 45.8121 61.8149 45.6713 61.6872C45.5331 61.5594 45.3207 61.463 45.0339 61.3978L44.0172 61.1749C43.4567 61.0472 43.0422 60.8438 42.7737 60.5649C42.5078 60.2859 42.3748 59.9327 42.3748 59.5052C42.3748 59.1506 42.4739 58.8404 42.672 58.5745C42.8701 58.3086 43.1439 58.1013 43.4932 57.9527C43.8425 57.8015 44.2427 57.7259 44.6937 57.7259C45.3428 57.7259 45.8538 57.8667 46.2266 58.1482C46.5994 58.4272 46.8457 58.8013 46.9656 59.2705ZM49.5377 60.2442V63.8105H48.3685V55.802H49.5221V58.7817H49.5964C49.7372 58.4585 49.9522 58.2017 50.2416 58.0114C50.531 57.8211 50.909 57.7259 51.3756 57.7259C51.7875 57.7259 52.1473 57.8106 52.4549 57.9801C52.7651 58.1496 53.005 58.4024 53.1744 58.7387C53.3465 59.0724 53.4325 59.4895 53.4325 59.9901V63.8105H52.2633V60.1308C52.2633 59.6903 52.1499 59.3487 51.9231 59.1063C51.6963 58.8612 51.3808 58.7387 50.9768 58.7387C50.7004 58.7387 50.4528 58.7974 50.2338 58.9147C50.0174 59.032 49.8467 59.2041 49.7215 59.4309C49.599 59.6551 49.5377 59.9262 49.5377 60.2442ZM64.9575 59.8063C64.9575 60.6613 64.8011 61.3965 64.4883 62.0118C64.1754 62.6244 63.7466 63.0962 63.2017 63.4273C62.6595 63.7558 62.043 63.92 61.3521 63.92C60.6587 63.92 60.0395 63.7558 59.4947 63.4273C58.9524 63.0962 58.5249 62.6231 58.212 62.0078C57.8992 61.3926 57.7428 60.6587 57.7428 59.8063C57.7428 58.9512 57.8992 58.2173 58.212 57.6047C58.5249 56.9895 58.9524 56.5176 59.4947 56.1891C60.0395 55.858 60.6587 55.6925 61.3521 55.6925C62.043 55.6925 62.6595 55.858 63.2017 56.1891C63.7466 56.5176 64.1754 56.9895 64.4883 57.6047C64.8011 58.2173 64.9575 58.9512 64.9575 59.8063ZM63.7609 59.8063C63.7609 59.1545 63.6554 58.6058 63.4442 58.16C63.2356 57.7116 62.9489 57.3727 62.5839 57.1433C62.2215 56.9112 61.8109 56.7952 61.3521 56.7952C60.8907 56.7952 60.4788 56.9112 60.1164 57.1433C59.754 57.3727 59.4673 57.7116 59.2561 58.16C59.0476 58.6058 58.9433 59.1545 58.9433 59.8063C58.9433 60.458 59.0476 61.0081 59.2561 61.4565C59.4673 61.9023 59.754 62.2412 60.1164 62.4732C60.4788 62.7026 60.8907 62.8173 61.3521 62.8173C61.8109 62.8173 62.2215 62.7026 62.5839 62.4732C62.9489 62.2412 63.2356 61.9023 63.4442 61.4565C63.6554 61.0081 63.7609 60.458 63.7609 59.8063ZM67.5394 60.2442V63.8105H66.3702V57.8041H67.4925V58.7817H67.5668C67.7049 58.4637 67.9213 58.2082 68.2159 58.0153C68.5131 57.8224 68.8872 57.7259 69.3382 57.7259C69.7475 57.7259 70.1059 57.812 70.4135 57.984C70.7212 58.1535 70.9597 58.4063 71.1292 58.7426C71.2986 59.0789 71.3833 59.4947 71.3833 59.9901V63.8105H70.2141V60.1308C70.2141 59.6955 70.1007 59.3553 69.8739 59.1102C69.6471 58.8626 69.3356 58.7387 68.9393 58.7387C68.6682 58.7387 68.4271 58.7974 68.2159 58.9147C68.0073 59.032 67.8418 59.2041 67.7193 59.4309C67.5993 59.6551 67.5394 59.9262 67.5394 60.2442ZM78.5521 63.8105H75.9595V55.802H78.6342C79.4189 55.802 80.0928 55.9623 80.6559 56.283C81.219 56.601 81.6505 57.0585 81.9503 57.6555C82.2527 58.2499 82.4039 58.9629 82.4039 59.7945C82.4039 60.6288 82.2514 61.3457 81.9464 61.9453C81.644 62.5449 81.206 63.0063 80.6325 63.3296C80.0589 63.6502 79.3655 63.8105 78.5521 63.8105ZM77.1678 62.7547H78.4856C79.0957 62.7547 79.6027 62.64 80.0068 62.4106C80.4109 62.1786 80.7133 61.8436 80.914 61.4056C81.1148 60.9651 81.2151 60.428 81.2151 59.7945C81.2151 59.1663 81.1148 58.6331 80.914 58.1952C80.7159 57.7572 80.42 57.4248 80.0264 57.198C79.6327 56.9712 79.1439 56.8578 78.5599 56.8578H77.1678V62.7547ZM86.4013 63.9318C85.8096 63.9318 85.2999 63.8053 84.8724 63.5525C84.4474 63.297 84.1189 62.9385 83.8869 62.4771C83.6575 62.0131 83.5428 61.4695 83.5428 60.8464C83.5428 60.2312 83.6575 59.689 83.8869 59.2197C84.1189 58.7505 84.4422 58.3842 84.8567 58.1209C85.2738 57.8576 85.7613 57.7259 86.3192 57.7259C86.6581 57.7259 86.9866 57.782 87.3046 57.8941C87.6227 58.0062 87.9082 58.1821 88.161 58.422C88.4139 58.6618 88.6133 58.9733 88.7593 59.3566C88.9053 59.7372 88.9783 60.1999 88.9783 60.7448V61.1593H84.2037V60.2833H87.8326C87.8326 59.9757 87.77 59.7033 87.6448 59.4661C87.5197 59.2262 87.3437 59.0372 87.1169 58.899C86.8927 58.7609 86.6294 58.6918 86.327 58.6918C85.9986 58.6918 85.7118 58.7726 85.4667 58.9342C85.2243 59.0933 85.0366 59.3018 84.9036 59.5599C84.7733 59.8154 84.7081 60.093 84.7081 60.3928V61.0772C84.7081 61.4786 84.7785 61.8201 84.9193 62.1017C85.0627 62.3832 85.2621 62.5983 85.5176 62.7469C85.7731 62.8929 86.0716 62.9659 86.4131 62.9659C86.6347 62.9659 86.8367 62.9346 87.0192 62.872C87.2017 62.8069 87.3594 62.7104 87.4923 62.5827C87.6253 62.4549 87.727 62.2972 87.7974 62.1095L88.904 62.3089C88.8154 62.6348 88.6563 62.9203 88.4269 63.1653C88.2001 63.4078 87.9147 63.5968 87.5706 63.7323C87.229 63.8653 86.8393 63.9318 86.4013 63.9318ZM91.4448 55.802V63.8105H90.2756V55.802H91.4448ZM93.0178 63.8105V57.8041H94.187V63.8105H93.0178ZM93.6083 56.8774C93.4049 56.8774 93.2302 56.8096 93.0843 56.674C92.9409 56.5358 92.8692 56.3716 92.8692 56.1813C92.8692 55.9884 92.9409 55.8241 93.0843 55.6886C93.2302 55.5504 93.4049 55.4813 93.6083 55.4813C93.8116 55.4813 93.985 55.5504 94.1283 55.6886C94.2743 55.8241 94.3473 55.9884 94.3473 56.1813C94.3473 56.3716 94.2743 56.5358 94.1283 56.674C93.985 56.8096 93.8116 56.8774 93.6083 56.8774ZM100.898 57.8041L98.7202 63.8105H97.4688L95.2868 57.8041H96.5421L98.0632 62.4263H98.1258L99.643 57.8041H100.898ZM104.381 63.9318C103.79 63.9318 103.28 63.8053 102.853 63.5525C102.428 63.297 102.099 62.9385 101.867 62.4771C101.638 62.0131 101.523 61.4695 101.523 60.8464C101.523 60.2312 101.638 59.689 101.867 59.2197C102.099 58.7505 102.422 58.3842 102.837 58.1209C103.254 57.8576 103.741 57.7259 104.299 57.7259C104.638 57.7259 104.967 57.782 105.285 57.8941C105.603 58.0062 105.888 58.1821 106.141 58.422C106.394 58.6618 106.593 58.9733 106.739 59.3566C106.885 59.7372 106.958 60.1999 106.958 60.7448V61.1593H102.184V60.2833H105.813C105.813 59.9757 105.75 59.7033 105.625 59.4661C105.5 59.2262 105.324 59.0372 105.097 58.899C104.873 58.7609 104.61 58.6918 104.307 58.6918C103.979 58.6918 103.692 58.7726 103.447 58.9342C103.204 59.0933 103.017 59.3018 102.884 59.5599C102.753 59.8154 102.688 60.093 102.688 60.3928V61.0772C102.688 61.4786 102.759 61.8201 102.899 62.1017C103.043 62.3832 103.242 62.5983 103.498 62.7469C103.753 62.8929 104.052 62.9659 104.393 62.9659C104.615 62.9659 104.817 62.9346 104.999 62.872C105.182 62.8069 105.34 62.7104 105.472 62.5827C105.605 62.4549 105.707 62.2972 105.778 62.1095L106.884 62.3089C106.796 62.6348 106.636 62.9203 106.407 63.1653C106.18 63.4078 105.895 63.5968 105.551 63.7323C105.209 63.8653 104.819 63.9318 104.381 63.9318ZM108.256 63.8105V57.8041H109.386V58.7583H109.448C109.558 58.435 109.751 58.1808 110.027 57.9957C110.306 57.808 110.622 57.7142 110.973 57.7142C111.046 57.7142 111.133 57.7168 111.232 57.722C111.333 57.7272 111.413 57.7337 111.47 57.7416V58.8599C111.423 58.8469 111.34 58.8326 111.22 58.8169C111.1 58.7987 110.98 58.7896 110.86 58.7896C110.584 58.7896 110.337 58.8482 110.121 58.9655C109.907 59.0802 109.738 59.2406 109.613 59.4465C109.488 59.6499 109.425 59.8819 109.425 60.1426V63.8105H108.256ZM113.404 66.063C113.229 66.063 113.07 66.0486 112.927 66.0199C112.783 65.9939 112.676 65.9652 112.606 65.9339L112.888 64.9759C113.101 65.0332 113.292 65.058 113.459 65.0502C113.625 65.0423 113.773 64.9798 113.9 64.8625C114.031 64.7451 114.145 64.5535 114.245 64.2876L114.389 63.8888L112.192 57.8041H113.443L114.964 62.4654H115.027L116.548 57.8041H117.803L115.328 64.6122C115.213 64.925 115.067 65.1896 114.89 65.406C114.713 65.625 114.501 65.7892 114.256 65.8987C114.011 66.0082 113.727 66.063 113.404 66.063Z" fill="#7A7A7A"/>
</g>
</svg>
