<svg width="48" height="48" viewBox="0 0 48 48" fill="none" xmlns="http://www.w3.org/2000/svg">
<path d="M36.5728 16.7106C35.7501 15.7735 34.9045 14.8364 34.0132 13.9451L33.3504 13.328L33.6703 13.0537C34.788 12.0942 35.5845 10.815 35.9523 9.38866C36.3201 7.96229 36.2415 6.45741 35.7272 5.07708C34.982 3.52055 33.802 2.21311 32.3298 1.31271C30.8576 0.412316 29.1562 -0.0425271 27.4311 0.00312882V4.57426C28.2443 4.56294 29.0457 4.76878 29.7528 5.17055C30.4599 5.57231 31.0469 6.15546 31.4535 6.85982C31.842 7.77405 31.4535 8.7797 30.3793 9.85391C30.2194 10.0368 30.0365 10.151 29.8765 10.311C23.0202 4.80282 15.5012 1.69445 11.8216 5.37421C11.4362 5.76824 11.1195 6.22403 10.8846 6.72269V6.95125L10.4732 8.1626L0.39448 38.1035C0.0132481 39.2318 -0.0936955 40.4347 0.0825077 41.6125C0.258711 42.7904 0.712989 43.9093 1.40772 44.8766C2.10244 45.8439 3.01763 46.6318 4.07746 47.175C5.13729 47.7181 6.31128 48.0009 7.50217 48C8.27976 47.9924 9.0512 47.8613 9.7876 47.6115L41.1437 37.2121C41.5291 37.0687 41.8686 36.8239 42.1264 36.5036L42.6064 36.0922C45.8745 32.801 43.7719 26.47 39.3839 20.3218C41.9894 18.8011 44.9895 18.0928 48 18.2876V13.7165C43.9716 13.4949 39.9751 14.542 36.5728 16.7106ZM8.46205 43.2689C7.94327 43.4406 7.38698 43.4647 6.85528 43.3386C6.32358 43.2125 5.83739 42.9411 5.45099 42.5546C5.06459 42.1682 4.79318 41.682 4.66707 41.1503C4.54095 40.6185 4.5651 40.0622 4.7368 39.5434L7.84498 30.1726C10.0632 34.4029 13.4716 37.891 17.6495 40.2062L8.46205 43.2689ZM24.4601 37.9435C21.0062 37.0287 17.8554 35.2173 15.3269 32.6927C12.7984 30.1681 10.982 27.02 10.0619 23.5673L12.3473 16.7106L12.4844 16.9163C12.7358 17.4191 13.0558 17.9448 13.3757 18.4705C13.6957 18.9962 13.7414 19.1333 13.9699 19.4761C14.1985 19.819 14.7241 20.5732 15.1355 21.1446C15.5469 21.716 15.5697 21.7846 15.8211 22.1045C16.0725 22.4245 16.8039 23.3616 17.3295 23.9787L17.9923 24.7787C18.7693 25.67 19.5921 26.5385 20.4606 27.4299C21.329 28.3213 22.0147 28.8927 22.746 29.7155L23.5002 30.3554L25.2828 31.7953L26.1284 32.4353C26.7684 32.8924 27.3854 33.3495 28.0253 33.7609L28.7338 34.218C29.5566 34.7209 30.3793 35.2008 31.1792 35.6122H31.2935L24.4601 37.9435ZM39.3382 32.8467H39.2011C37.6241 33.7152 31.065 31.5439 23.683 24.1387C22.906 23.3616 22.1746 22.6074 21.5119 21.8531L19.6378 19.5904L18.975 18.6762C18.6779 18.2419 18.358 17.8305 18.0837 17.4191L17.4895 16.4592L16.8267 15.385C16.6439 15.065 16.5068 14.7679 16.3468 14.4708C16.1868 14.1736 16.004 13.8765 15.8668 13.5565C15.7443 13.2887 15.6374 13.014 15.5469 12.7337C15.4326 12.4366 15.2955 12.1395 15.2041 11.8652C15.1127 11.5909 15.0898 11.431 15.0212 11.1567C14.9527 10.8824 14.907 10.6539 14.8613 10.4253C14.8499 10.2274 14.8499 10.029 14.8613 9.83106C14.8392 9.64888 14.8392 9.46471 14.8613 9.28252L15.1127 8.574C15.9354 7.75119 20.2092 8.574 25.9227 12.9166C24.9542 13.3537 23.9188 13.6242 22.8603 13.7165V18.2876C25.2879 18.148 27.6433 17.4099 29.7166 16.1392L30.8136 17.1906C31.7734 18.1505 32.6648 19.1333 33.5104 20.1161C32.2022 22.4819 31.7196 25.2163 32.1391 27.887L36.71 26.9957C36.5753 26.1477 36.5753 25.2838 36.71 24.4358C37.4075 25.4936 38.0262 26.6013 38.5612 27.7499C39.841 30.7668 39.7496 32.4582 39.3382 32.8467Z" fill="#020804"/>
</svg>
