<svg width="40" height="27" viewBox="0 0 40 27" fill="none" xmlns="http://www.w3.org/2000/svg">
<path d="M39.0201 13.0199L37.1301 7.31989C36.6401 5.83989 35.28 4.87988 33.67 4.87988H28.61L28.79 3.36987C28.87 2.71987 28.6801 2.06985 28.2601 1.59985C27.8501 1.12985 27.2301 0.859863 26.5801 0.859863H7.09008C5.80008 0.859863 4.64004 1.89986 4.49004 3.16986L4.39006 3.96985C4.34007 4.40985 4.65007 4.80987 5.08007 4.86987C5.53007 4.93987 5.93003 4.61987 5.98003 4.17987L6.09008 3.36987C6.14008 2.88987 6.62008 2.46985 7.09008 2.46985H26.5801C26.7701 2.46985 26.94 2.53986 27.05 2.66986C27.17 2.79986 27.2101 2.97987 27.1901 3.17987L25.31 18.5499H4.20006C4.20006 18.1499 3.91006 17.7999 3.51006 17.7499C3.07006 17.6899 2.67004 18.0099 2.61004 18.4499L2.31005 20.8699C2.23005 21.5199 2.43003 22.1699 2.85003 22.6399C3.27003 23.1099 3.86007 23.3699 4.52007 23.3699H6.08007C6.09007 24.1699 6.36005 24.9099 6.88005 25.4999C7.50005 26.1999 8.38004 26.5899 9.36004 26.5899C11.2 26.5899 12.8701 25.1699 13.2501 23.3699H27.18C27.19 24.1699 27.46 24.9099 27.98 25.4999C28.6 26.1999 29.4801 26.5899 30.4601 26.5899C32.3001 26.5899 33.97 25.1699 34.35 23.3699H36.0801C37.3801 23.3699 38.53 22.3499 38.68 21.0599L39.3 16.0199C39.43 14.9799 39.3301 13.9599 39.0201 13.0099V13.0199ZM37.3 12.9299H32.4501L32.8301 9.80988C32.8301 9.80988 32.9001 9.7099 32.9401 9.7099H36.23L37.3 12.9299ZM28.42 6.48987H33.68C34.6 6.48987 35.34 6.9999 35.62 7.8299L35.7101 8.09985H32.9501C32.1001 8.09985 31.35 8.75986 31.25 9.60986L30.86 12.8299C30.81 13.2699 30.94 13.7099 31.22 14.0299C31.5 14.3499 31.92 14.5399 32.36 14.5399H37.73C37.78 14.9599 37.78 15.3899 37.73 15.8399L37.3901 18.5599H26.9501L28.43 6.49988L28.42 6.48987ZM27.5301 21.7699H26.54L26.74 20.1599H28.8401C28.2801 20.5799 27.8201 21.1299 27.5301 21.7699ZM24.93 21.7699H13.24C13.11 21.2799 12.89 20.8299 12.55 20.4499C12.45 20.3399 12.35 20.2599 12.24 20.1599H25.1401L24.9401 21.7699H24.93ZM6.42003 21.7699H4.53008C4.34008 21.7699 4.17005 21.6999 4.06005 21.5799C3.94005 21.4499 3.89002 21.2599 3.91002 21.0699L4.02007 20.1699H7.70006C7.14006 20.5799 6.70002 21.1399 6.41002 21.7799L6.42003 21.7699ZM11.73 22.8799C11.59 24.0199 10.51 24.9899 9.37005 24.9899C8.86005 24.9899 8.40008 24.7999 8.09008 24.4499C7.77008 24.0899 7.63006 23.5999 7.70006 23.0799C7.84006 21.9399 8.92006 20.9698 10.0701 20.9698C10.5801 20.9698 11.04 21.1599 11.35 21.5099C11.67 21.8699 11.81 22.3599 11.74 22.8799H11.73ZM32.8301 22.8799C32.6901 24.0199 31.61 24.9899 30.47 24.9899C29.96 24.9899 29.5001 24.7999 29.1901 24.4499C28.8701 24.0899 28.73 23.5999 28.8 23.0799C28.94 21.9399 30.02 20.9698 31.16 20.9698C31.67 20.9698 32.1301 21.1599 32.4401 21.5099C32.7601 21.8699 32.9001 22.3599 32.8301 22.8799ZM36.0901 21.7699H34.3401C34.2101 21.2799 33.9901 20.8299 33.6501 20.4499C33.5501 20.3399 33.4501 20.2599 33.3401 20.1599H37.1901L37.11 20.8699C37.05 21.3499 36.58 21.7699 36.1 21.7699H36.0901Z" fill="#FF6996"/>
<path d="M8.03003 15.3401C8.03003 14.9001 7.66998 14.54 7.22998 14.54H1.58002C1.14002 14.54 0.780029 14.9001 0.780029 15.3401C0.780029 15.7801 1.14002 16.1401 1.58002 16.1401H7.22998C7.66998 16.1401 8.03003 15.7801 8.03003 15.3401Z" fill="#FF6996"/>
<path d="M4.04999 10.5098C3.60999 10.5098 3.25 10.8698 3.25 11.3098C3.25 11.7498 3.60999 12.1097 4.04999 12.1097H7.71002C8.16002 12.1097 8.51001 11.7498 8.51001 11.3098C8.51001 10.8698 8.15002 10.5098 7.71002 10.5098H4.04999Z" fill="#FF6996"/>
<path d="M2.52002 8.09998H9.02002C9.46002 8.09998 9.82001 7.73999 9.82001 7.29999C9.82001 6.85999 9.46002 6.5 9.02002 6.5H2.52002C2.07002 6.5 1.71997 6.85999 1.71997 7.29999C1.71997 7.73999 2.08002 8.09998 2.52002 8.09998Z" fill="#FF6996"/>
</svg>
