<svg width="33" height="33" viewBox="0 0 33 33" fill="none" xmlns="http://www.w3.org/2000/svg">
<path d="M16.3333 2.88379C9 2.88379 3 8.87046 3 16.2438C3 22.9105 7.88 28.4438 14.2533 29.4438V20.1105H10.8667V16.2438H14.2533V13.2971C14.2533 9.95046 16.24 8.11046 19.2933 8.11046C20.7467 8.11046 22.2667 8.36379 22.2667 8.36379V11.6571H20.5867C18.9333 11.6571 18.4133 12.6838 18.4133 13.7371V16.2438H22.12L21.52 20.1105H18.4133V29.4438C21.5553 28.9476 24.4163 27.3445 26.4799 24.9239C28.5435 22.5033 29.6738 19.4246 29.6667 16.2438C29.6667 8.87046 23.6667 2.88379 16.3333 2.88379V2.88379Z" fill="#FF6996"/>
</svg>
