<svg width="18" height="22" viewBox="0 0 18 22" fill="none" xmlns="http://www.w3.org/2000/svg">
<path d="M13 0.217285C14.3261 0.217285 15.5979 0.744069 16.5355 1.68175C17.4732 2.61943 18 3.8912 18 5.21729V13.2173C18 14.5434 17.4732 15.8151 16.5355 16.7528C15.5979 17.6905 14.3261 18.2173 13 18.2173H5C3.67392 18.2173 2.40215 17.6905 1.46447 16.7528C0.526784 15.8151 0 14.5434 0 13.2173V5.21729C0 3.8912 0.526784 2.61943 1.46447 1.68175C2.40215 0.744069 3.67392 0.217285 5 0.217285H13ZM9 5.21729C7.93913 5.21729 6.92172 5.63871 6.17157 6.38886C5.42143 7.139 5 8.15642 5 9.21729C5 10.2782 5.42143 11.2956 6.17157 12.0457C6.92172 12.7959 7.93913 13.2173 9 13.2173C10.0609 13.2173 11.0783 12.7959 11.8284 12.0457C12.5786 11.2956 13 10.2782 13 9.21729C13 8.15642 12.5786 7.139 11.8284 6.38886C11.0783 5.63871 10.0609 5.21729 9 5.21729ZM9 7.21729C9.53043 7.21729 10.0391 7.428 10.4142 7.80307C10.7893 8.17814 11 8.68685 11 9.21729C11 9.74772 10.7893 10.2564 10.4142 10.6315C10.0391 11.0066 9.53043 11.2173 9 11.2173C8.46957 11.2173 7.96086 11.0066 7.58579 10.6315C7.21071 10.2564 7 9.74772 7 9.21729C7 8.68685 7.21071 8.17814 7.58579 7.80307C7.96086 7.428 8.46957 7.21729 9 7.21729ZM13.5 3.71729C13.2348 3.71729 12.9804 3.82264 12.7929 4.01018C12.6054 4.19772 12.5 4.45207 12.5 4.71729C12.5 4.9825 12.6054 5.23686 12.7929 5.42439C12.9804 5.61193 13.2348 5.71729 13.5 5.71729C13.7652 5.71729 14.0196 5.61193 14.2071 5.42439C14.3946 5.23686 14.5 4.9825 14.5 4.71729C14.5 4.45207 14.3946 4.19772 14.2071 4.01018C14.0196 3.82264 13.7652 3.71729 13.5 3.71729Z" fill="#D0D0D0"/>
</svg>
