<svg width="20" height="21" viewBox="0 0 20 21" fill="none" xmlns="http://www.w3.org/2000/svg">
<path d="M10 0.217285C4.5 0.217285 0 4.70729 0 10.2373C0 15.2373 3.66 19.3873 8.44 20.1373V13.1373H5.9V10.2373H8.44V8.02729C8.44 5.51729 9.93 4.13729 12.22 4.13729C13.31 4.13729 14.45 4.32729 14.45 4.32729V6.79729H13.19C11.95 6.79729 11.56 7.56729 11.56 8.35729V10.2373H14.34L13.89 13.1373H11.56V20.1373C13.9164 19.7651 16.0622 18.5628 17.6099 16.7473C19.1576 14.9319 20.0054 12.6229 20 10.2373C20 4.70729 15.5 0.217285 10 0.217285Z" fill="#D0D0D0"/>
</svg>
