<svg width="24" height="25" viewBox="0 0 24 25" fill="none" xmlns="http://www.w3.org/2000/svg">
<path fill-rule="evenodd" clip-rule="evenodd" d="M16 21.9673C17.525 21.9673 18.9875 21.3615 20.0658 20.2831C21.1442 19.2048 21.75 17.7423 21.75 16.2173V8.21729C21.75 6.69229 21.1442 5.22976 20.0658 4.15142C18.9875 3.07309 17.525 2.46729 16 2.46729H7.99997C6.47497 2.46729 5.01244 3.07309 3.93411 4.15142C2.85577 5.22976 2.24997 6.69229 2.24997 8.21729V16.2173C2.24997 17.7423 2.85577 19.2048 3.93411 20.2831C5.01244 21.3615 6.47497 21.9673 7.99997 21.9673H16ZM13.711 5.98029C13.6544 5.81173 13.5397 5.66876 13.3875 5.57688C13.2353 5.485 13.0554 5.45019 12.8799 5.47866C12.7044 5.50713 12.5447 5.59703 12.4293 5.73232C12.3139 5.8676 12.2504 6.03948 12.25 6.21729V15.2173C12.25 15.6623 12.118 16.0973 11.8708 16.4673C11.6235 16.8373 11.2721 17.1257 10.861 17.296C10.4499 17.4663 9.99747 17.5109 9.56102 17.4241C9.12456 17.3372 8.72365 17.1229 8.40898 16.8083C8.09431 16.4936 7.88002 16.0927 7.7932 15.6562C7.70639 15.2198 7.75094 14.7674 7.92124 14.3562C8.09154 13.9451 8.37993 13.5937 8.74994 13.3465C9.11995 13.0992 9.55496 12.9673 9.99997 12.9673C10.1989 12.9673 10.3896 12.8883 10.5303 12.7476C10.671 12.607 10.75 12.4162 10.75 12.2173C10.75 12.0184 10.671 11.8276 10.5303 11.687C10.3896 11.5463 10.1989 11.4673 9.99997 11.4673C9.25829 11.4673 8.53327 11.6872 7.91658 12.0993C7.2999 12.5113 6.81925 13.097 6.53542 13.7822C6.25159 14.4674 6.17733 15.2214 6.32202 15.9489C6.46672 16.6763 6.82387 17.3445 7.34832 17.8689C7.87277 18.3934 8.54095 18.7505 9.26838 18.8952C9.99581 19.0399 10.7498 18.9657 11.435 18.6818C12.1203 18.398 12.7059 17.9174 13.118 17.3007C13.53 16.684 13.75 15.959 13.75 15.2173V8.67529C14.517 9.38729 15.597 9.96729 17 9.96729C17.1989 9.96729 17.3896 9.88827 17.5303 9.74761C17.671 9.60696 17.75 9.4162 17.75 9.21729C17.75 9.01837 17.671 8.82761 17.5303 8.68696C17.3896 8.5463 17.1989 8.46729 17 8.46729C16.028 8.46729 15.289 8.06729 14.741 7.54829C14.181 7.01628 13.843 6.37529 13.711 5.98029Z" fill="#D0D0D0"/>
</svg>
