<svg width="32" height="33" viewBox="0 0 32 33" fill="none" xmlns="http://www.w3.org/2000/svg">
<path d="M21.3333 4.21729C23.1014 4.21729 24.7971 4.91966 26.0474 6.16991C27.2976 7.42015 28 9.11584 28 10.884V21.5506C28 23.3187 27.2976 25.0144 26.0474 26.2647C24.7971 27.5149 23.1014 28.2173 21.3333 28.2173H10.6667C8.89856 28.2173 7.20286 27.5149 5.95262 26.2647C4.70238 25.0144 4 23.3187 4 21.5506V10.884C4 9.11584 4.70238 7.42015 5.95262 6.16991C7.20286 4.91966 8.89856 4.21729 10.6667 4.21729H21.3333ZM16 10.884C14.5855 10.884 13.229 11.4459 12.2288 12.446C11.2286 13.4462 10.6667 14.8028 10.6667 16.2173C10.6667 17.6318 11.2286 18.9883 12.2288 19.9885C13.229 20.9887 14.5855 21.5506 16 21.5506C17.4145 21.5506 18.771 20.9887 19.7712 19.9885C20.7714 18.9883 21.3333 17.6318 21.3333 16.2173C21.3333 14.8028 20.7714 13.4462 19.7712 12.446C18.771 11.4459 17.4145 10.884 16 10.884ZM16 13.5506C16.7072 13.5506 17.3855 13.8316 17.8856 14.3317C18.3857 14.8318 18.6667 15.51 18.6667 16.2173C18.6667 16.9245 18.3857 17.6028 17.8856 18.1029C17.3855 18.603 16.7072 18.884 16 18.884C15.2928 18.884 14.6145 18.603 14.1144 18.1029C13.6143 17.6028 13.3333 16.9245 13.3333 16.2173C13.3333 15.51 13.6143 14.8318 14.1144 14.3317C14.6145 13.8316 15.2928 13.5506 16 13.5506ZM22 8.88395C21.6464 8.88395 21.3072 9.02443 21.0572 9.27448C20.8071 9.52453 20.6667 9.86366 20.6667 10.2173C20.6667 10.5709 20.8071 10.91 21.0572 11.1601C21.3072 11.4101 21.6464 11.5506 22 11.5506C22.3536 11.5506 22.6928 11.4101 22.9428 11.1601C23.1929 10.91 23.3333 10.5709 23.3333 10.2173C23.3333 9.86366 23.1929 9.52453 22.9428 9.27448C22.6928 9.02443 22.3536 8.88395 22 8.88395Z" fill="#FF6996"/>
</svg>
