<svg width="48" height="48" viewBox="0 0 48 48" fill="none" xmlns="http://www.w3.org/2000/svg">
<path d="M43.76 4.30005L41.36 5.10005C37.2468 6.52914 32.8545 6.96768 28.54 6.38005C24.0063 5.67647 19.3658 6.30168 15.18 8.18005C12.961 9.12494 11.0135 10.6099 9.51494 12.4997C8.01639 14.3895 7.01433 16.6241 6.59999 19C6.17853 21.285 6.22164 23.6313 6.72676 25.8992C7.23188 28.1671 8.18865 30.31 9.53999 32.2001C9.41999 32.6201 9.29999 33.04 9.19999 33.46C8.38767 36.9141 7.9849 40.4518 7.99999 44H12C12.188 41.0957 12.5823 38.2084 13.18 35.3601C15.9549 36.8585 19.0667 37.6226 22.22 37.5801C25.1609 37.578 28.0716 36.9864 30.78 35.84C46 29.34 44 7.72005 44 6.82005L43.76 4.30005ZM29.22 32.16C24 34.38 17.76 34 14.26 31.26C14.8515 29.2821 15.6633 27.3768 16.68 25.58C17.4704 24.2869 18.4028 23.0861 19.46 22C20.5402 20.9024 21.7568 19.948 23.08 19.16C25.8141 17.5252 28.8464 16.4509 32 16V14C28.3716 13.8744 24.7654 14.6149 21.48 16.16C18.1208 17.7991 15.272 20.323 13.24 23.46C12.4863 24.6582 11.818 25.908 11.24 27.2001C10.313 24.8288 10.0503 22.2496 10.48 19.74C10.7615 17.9831 11.4858 16.3268 12.5845 14.9272C13.6832 13.5276 15.1202 12.4307 16.76 11.74C19.1512 10.6224 21.7605 10.0486 24.4 10.06C25.64 10.06 26.86 10.18 28.14 10.28C32.1486 10.7973 36.2187 10.5598 40.14 9.58005C40 15.1 39 28 29.22 32.16Z" fill="#020804"/>
</svg>
