<svg width="16" height="17" viewBox="0 0 16 17" fill="none" xmlns="http://www.w3.org/2000/svg">
<path d="M7.808 0.5C12.3336 0.5 16 4.0816 16 8.5C16 12.9184 12.3328 16.5 7.808 16.5C5.2552 16.5 2.8944 15.3504 1.352 13.4232C1.30876 13.3694 1.27679 13.3074 1.25797 13.241C1.23915 13.1746 1.23387 13.105 1.24246 13.0365C1.25104 12.968 1.2733 12.9019 1.30792 12.8422C1.34255 12.7825 1.38882 12.7303 1.444 12.6888C1.55652 12.6032 1.69795 12.5648 1.83832 12.5816C1.97869 12.5985 2.10698 12.6694 2.196 12.7792C2.87074 13.6178 3.72567 14.2936 4.69734 14.7566C5.66901 15.2196 6.73247 15.4578 7.8088 15.4536C11.7408 15.4536 14.9288 12.34 14.9288 8.5C14.9288 4.66 11.7408 1.5464 7.8088 1.5464C6.74784 1.54226 5.69919 1.7737 4.73852 2.22402C3.77785 2.67433 2.92913 3.33228 2.2536 4.1504C2.16317 4.25924 2.03388 4.32855 1.89319 4.34363C1.75249 4.35872 1.61145 4.31839 1.5 4.2312C1.4453 4.18898 1.39965 4.13619 1.36577 4.07597C1.33189 4.01576 1.31047 3.94934 1.30278 3.88067C1.29509 3.812 1.30129 3.74249 1.32102 3.67627C1.34075 3.61004 1.37359 3.54847 1.4176 3.4952C2.9624 1.6152 5.2912 0.5 7.808 0.5ZM8.2448 5.9896L10.4104 8.1552C10.62 8.3648 10.624 8.6992 10.4192 8.904L8.304 11.02C8.25434 11.0689 8.19549 11.1075 8.13085 11.1335C8.06621 11.1595 7.99705 11.1725 7.92737 11.1717C7.85768 11.1709 7.78885 11.1563 7.72484 11.1287C7.66082 11.1012 7.6029 11.0612 7.5544 11.0112C7.50441 10.9626 7.46452 10.9047 7.43704 10.8406C7.40956 10.7766 7.39503 10.7078 7.39429 10.6381C7.39354 10.5684 7.4066 10.4992 7.43271 10.4346C7.45882 10.37 7.49746 10.3112 7.5464 10.2616L8.784 9.0232L0.536 9.024C0.466327 9.02506 0.397134 9.01231 0.33241 8.9865C0.267685 8.96069 0.20871 8.92233 0.158883 8.87362C0.109057 8.82491 0.0693649 8.76681 0.0420958 8.70269C0.0148267 8.63857 0.000519858 8.56968 0 8.5C0 8.2112 0.24 7.9768 0.536 7.9768H8.7504L7.504 6.7296C7.45401 6.68105 7.41412 6.62308 7.38664 6.55904C7.35916 6.495 7.34463 6.42615 7.34389 6.35647C7.34314 6.28678 7.3562 6.21764 7.38231 6.15303C7.40842 6.08841 7.44706 6.02961 7.496 5.98C7.54563 5.93135 7.60438 5.89297 7.66887 5.86708C7.73336 5.84118 7.80233 5.82827 7.87183 5.82909C7.94132 5.82991 8.00997 5.84443 8.07384 5.87184C8.1377 5.89925 8.19553 5.93899 8.244 5.9888" fill="black"/>
</svg>
