<svg width="24" height="25" viewBox="0 0 24 25" fill="none" xmlns="http://www.w3.org/2000/svg">
<path d="M19.5 18C19.5 19.3807 18.3807 20.5 17 20.5C15.6193 20.5 14.5 19.3807 14.5 18C14.5 16.6193 15.6193 15.5 17 15.5C18.3807 15.5 19.5 16.6193 19.5 18Z" stroke="#2E2E2E" stroke-width="1.5"/>
<path d="M9.5 18C9.5 19.3807 8.38071 20.5 7 20.5C5.61929 20.5 4.5 19.3807 4.5 18C4.5 16.6193 5.61929 15.5 7 15.5C8.38071 15.5 9.5 16.6193 9.5 18Z" stroke="#2E2E2E" stroke-width="1.5"/>
<path d="M14.5 18H9.5M2 4.5H12C13.4142 4.5 14.1213 4.5 14.5607 4.93934C15 5.37868 15 6.08579 15 7.5V16M15.5 7H17.3014C18.1311 7 18.5459 7 18.8898 7.1947C19.2336 7.3894 19.4471 7.7451 19.8739 8.45651L21.5725 11.2875C21.7849 11.6415 21.8911 11.8186 21.9456 12.0151C22 12.2116 22 12.418 22 12.831V15.5C22 16.4346 22 16.9019 21.799 17.25C21.6674 17.478 21.478 17.6674 21.25 17.799C20.9019 18 20.4346 18 19.5 18M2 13.5V15.5C2 16.4346 2 16.9019 2.20096 17.25C2.33261 17.478 2.52197 17.6674 2.75 17.799C3.09808 18 3.56538 18 4.5 18" stroke="#2E2E2E" stroke-width="1.5" stroke-linecap="round" stroke-linejoin="round"/>
<path d="M2 7.5H8M2 10.5H6" stroke="#2E2E2E" stroke-width="1.5" stroke-linecap="round" stroke-linejoin="round"/>
</svg>
