<svg width="40" height="40" viewBox="0 0 24 25" fill="none" xmlns="http://www.w3.org/2000/svg">
<g clip-path="url(#clip0_908_7554)">
<path d="M24 12.6989C24 6.08094 18.624 0.710938 12 0.710938C5.376 0.710938 0 6.08094 0 12.6989C0 16.3439 1.656 19.6289 4.248 21.8339C4.272 21.8579 4.296 21.8579 4.296 21.8819C4.512 22.0499 4.728 22.2179 4.968 22.3859C5.088 22.4579 5.184 22.5524 5.304 22.6484C7.28791 23.9913 9.62834 24.7096 12.024 24.7109C14.4197 24.7096 16.7601 23.9913 18.744 22.6484C18.864 22.5764 18.96 22.4819 19.08 22.4084C19.296 22.2419 19.536 22.0739 19.752 21.9059C19.776 21.8819 19.8 21.8819 19.8 21.8579C22.344 19.6274 24 16.3439 24 12.6989ZM12 23.2004C9.744 23.2004 7.68 22.4804 5.976 21.2819C6 21.0899 6.048 20.8994 6.096 20.7074C6.23948 20.1873 6.4492 19.6877 6.72 19.2209C6.984 18.7649 7.296 18.3569 7.68 17.9969C8.04 17.6369 8.472 17.3024 8.904 17.0384C9.36 16.7744 9.84 16.5824 10.368 16.4384C10.9003 16.2959 11.449 16.2238 12 16.2239C13.6361 16.2116 15.2123 16.8392 16.392 17.9729C16.944 18.5249 17.376 19.1724 17.688 19.9154C17.856 20.3474 17.976 20.8029 18.048 21.2819C16.2768 22.5272 14.1652 23.197 12 23.2004ZM8.328 12.1004C8.11697 11.6161 8.01064 11.0927 8.016 10.5644C8.016 10.0379 8.112 9.50994 8.328 9.02994C8.544 8.54994 8.832 8.11944 9.192 7.75944C9.552 7.39944 9.984 7.11294 10.464 6.89694C10.944 6.68094 11.472 6.58494 12 6.58494C12.552 6.58494 13.056 6.68094 13.536 6.89694C14.016 7.11294 14.448 7.40094 14.808 7.75944C15.168 8.11944 15.456 8.55144 15.672 9.02994C15.888 9.50994 15.984 10.0379 15.984 10.5644C15.984 11.1164 15.888 11.6204 15.672 12.0989C15.4647 12.5725 15.1718 13.0037 14.808 13.3709C14.4407 13.7342 14.0094 14.0266 13.536 14.2334C12.5441 14.6402 11.4319 14.6402 10.44 14.2334C9.96656 14.0266 9.53534 13.7342 9.168 13.3709C8.80387 13.0089 8.51796 12.5775 8.328 12.1004ZM19.464 20.0594C19.464 20.0114 19.44 19.9874 19.44 19.9394C19.2044 19.1884 18.8564 18.4773 18.408 17.8304C17.9592 17.1788 17.4081 16.6039 16.776 16.1279C16.2931 15.7645 15.7696 15.4585 15.216 15.2159C15.4667 15.0482 15.6998 14.8558 15.912 14.6414C16.2698 14.2882 16.584 13.8934 16.848 13.4654C17.3814 12.5929 17.656 11.5869 17.64 10.5644C17.6478 9.80767 17.5008 9.0573 17.208 8.35944C16.9192 7.68692 16.5037 7.0763 15.984 6.56094C15.4638 6.05251 14.8534 5.64555 14.184 5.36094C13.4851 5.06822 12.7337 4.92171 11.976 4.93044C11.2182 4.92218 10.4668 5.0692 9.768 5.36244C9.09127 5.64358 8.47883 6.05952 7.968 6.58494C7.45692 7.10239 7.0496 7.71287 6.768 8.38344C6.47517 9.0813 6.32816 9.83167 6.336 10.5884C6.336 11.1164 6.408 11.6199 6.552 12.0989C6.696 12.6029 6.888 13.0589 7.152 13.4894C7.392 13.9214 7.728 14.3054 8.088 14.6654C8.304 14.8814 8.544 15.0729 8.808 15.2399C8.25195 15.4875 7.72809 15.8018 7.248 16.1759C6.624 16.6559 6.072 17.2304 5.616 17.8544C5.16341 18.4989 4.81514 19.2106 4.584 19.9634C4.56 20.0114 4.56 20.0594 4.56 20.0834C2.664 18.1649 1.488 15.5759 1.488 12.6989C1.488 6.92094 6.216 2.19744 12 2.19744C17.784 2.19744 22.512 6.92094 22.512 12.6989C22.5089 15.4589 21.413 18.1053 19.464 20.0594Z" fill="#2E2E2E" stroke="white" stroke-width="0.5"/>
</g>
<defs>
<clipPath id="clip0_908_7554">
<rect width="40" height="40" fill="white" transform="translate(0 0.710938)"/>
</clipPath>
</defs>
</svg>
