<svg width="16" height="17" viewBox="0 0 16 17" fill="none" xmlns="http://www.w3.org/2000/svg">
<path fill-rule="evenodd" clip-rule="evenodd" d="M0 8.49999C0 6.37826 0.842855 4.34343 2.34315 2.84314C3.84344 1.34285 5.87827 0.499992 8 0.499992C10.1217 0.499992 12.1566 1.34285 13.6569 2.84314C15.1571 4.34343 16 6.37826 16 8.49999C16 10.6217 15.1571 12.6566 13.6569 14.1568C12.1566 15.6571 10.1217 16.5 8 16.5C5.87827 16.5 3.84344 15.6571 2.34315 14.1568C0.842855 12.6566 0 10.6217 0 8.49999ZM8 1.64751C6.6718 1.64755 5.37224 2.0336 4.25941 2.75867C3.14659 3.48375 2.26846 4.5166 1.73187 5.73158C1.19527 6.94657 1.02334 8.29131 1.23698 9.60221C1.45062 10.9131 2.04063 12.1337 2.93523 13.1154C3.47825 12.2647 4.22701 11.5645 5.11227 11.0798C5.99752 10.595 6.99071 10.3413 8 10.3421C9.00929 10.3413 10.0025 10.595 10.8877 11.0798C11.773 11.5645 12.5217 12.2647 13.0648 13.1154C13.9594 12.1337 14.5494 10.9131 14.763 9.60221C14.9767 8.29131 14.8047 6.94657 14.2681 5.73158C13.7315 4.5166 12.8534 3.48375 11.7406 2.75867C10.6278 2.0336 9.3282 1.64755 8 1.64751ZM12.2059 13.9102C11.7788 13.1733 11.1653 12.5617 10.427 12.1368C9.6888 11.7119 8.85178 11.4887 8 11.4896C7.14822 11.4887 6.3112 11.7119 5.57295 12.1368C4.83471 12.5617 4.22121 13.1733 3.79405 13.9102C4.99573 14.847 6.47633 15.3547 8 15.3525C9.58478 15.3525 11.0439 14.8137 12.2059 13.9102ZM5.16141 7.29812C5.16141 6.54528 5.46047 5.82327 5.99281 5.29093C6.52515 4.75859 7.24716 4.45953 8 4.45953C8.75284 4.45953 9.47485 4.75859 10.0072 5.29093C10.5395 5.82327 10.8386 6.54528 10.8386 7.29812C10.8386 8.05096 10.5395 8.77297 10.0072 9.30531C9.47485 9.83765 8.75284 10.1367 8 10.1367C7.24716 10.1367 6.52515 9.83765 5.99281 9.30531C5.46047 8.77297 5.16141 8.05096 5.16141 7.29812ZM8 5.60704C7.77793 5.60704 7.55802 5.65078 7.35285 5.73577C7.14768 5.82075 6.96126 5.94532 6.80423 6.10235C6.6472 6.25938 6.52263 6.4458 6.43765 6.65097C6.35266 6.85614 6.30892 7.07605 6.30892 7.29812C6.30892 7.5202 6.35266 7.7401 6.43765 7.94527C6.52263 8.15044 6.6472 8.33686 6.80423 8.49389C6.96126 8.65092 7.14768 8.77549 7.35285 8.86047C7.55802 8.94546 7.77793 8.9892 8 8.9892C8.4485 8.9892 8.87863 8.81103 9.19577 8.49389C9.51291 8.17675 9.69108 7.74662 9.69108 7.29812C9.69108 6.84962 9.51291 6.41949 9.19577 6.10235C8.87863 5.78521 8.4485 5.60704 8 5.60704Z" fill="white"/>
</svg>
