<svg width="25" height="28" viewBox="0 0 25 28" fill="none" xmlns="http://www.w3.org/2000/svg">
<path d="M16.97 8.56018C16.37 8.56018 15.88 8.07015 15.88 7.47015V6.38019C15.88 4.58019 14.42 3.12018 12.62 3.12018C10.82 3.12018 9.35999 4.58019 9.35999 6.38019V7.47015C9.35999 8.07015 8.87002 8.56018 8.27002 8.56018C7.67002 8.56018 7.18005 8.07015 7.18005 7.47015V6.38019C7.18005 3.38019 9.60999 0.950195 12.61 0.950195C15.61 0.950195 18.04 3.38019 18.04 6.38019V7.47015C18.04 8.07015 17.55 8.56018 16.95 8.56018H16.97Z" fill="#FF6996"/>
<path d="M12.63 17.2402C9.63 17.2402 7.19995 14.8102 7.19995 11.8102C7.19995 11.2102 7.69004 10.7202 8.29004 10.7202C8.89004 10.7202 9.38 11.2102 9.38 11.8102C9.38 13.6102 10.84 15.0703 12.64 15.0703C14.44 15.0703 15.9 13.6102 15.9 11.8102C15.9 11.2102 16.39 10.7202 16.99 10.7202C17.59 10.7202 18.08 11.2102 18.08 11.8102C18.08 14.8102 15.65 17.2402 12.65 17.2402H12.63Z" fill="#FF6996"/>
<path d="M18.05 27.0202H7.18994C3.59994 27.0202 0.680054 24.1002 0.680054 20.5102L1.78003 9.54015C1.82003 7.78015 3.27003 6.38019 5.03003 6.39019H20.23C22.03 6.39019 23.49 7.8502 23.49 9.6502L24.58 20.4002C24.62 24.0202 21.74 26.9802 18.13 27.0202H18.0601H18.05ZM5.03003 8.56017C4.43003 8.56017 3.93994 9.0502 3.93994 9.6502L2.84998 20.6202C2.89998 22.9802 4.83994 24.8702 7.18994 24.8502H18.05C20.45 24.8502 22.39 22.9102 22.39 20.5102L21.3 9.76019C21.34 9.14018 20.87 8.61018 20.25 8.57018H5.02002L5.03003 8.56017Z" fill="#FF6996"/>
</svg>
