<svg width="33" height="33" viewBox="0 0 33 33" fill="none" xmlns="http://www.w3.org/2000/svg">
<path fill-rule="evenodd" clip-rule="evenodd" d="M21.9999 29.2173C24.0332 29.2173 25.9833 28.4096 27.4211 26.9718C28.8588 25.534 29.6666 23.5839 29.6666 21.5506V10.884C29.6666 8.85063 28.8588 6.90058 27.4211 5.4628C25.9833 4.02502 24.0332 3.21729 21.9999 3.21729H11.3332C9.29991 3.21729 7.34986 4.02502 5.91208 5.4628C4.4743 6.90058 3.66656 8.85063 3.66656 10.884V21.5506C3.66656 23.5839 4.4743 25.534 5.91208 26.9718C7.34986 28.4096 9.29991 29.2173 11.3332 29.2173H21.9999ZM18.9479 7.90129C18.8724 7.67654 18.7196 7.48591 18.5166 7.36341C18.3137 7.2409 18.0738 7.19449 17.8398 7.23245C17.6058 7.27041 17.3928 7.39028 17.239 7.57066C17.0852 7.75104 17.0004 7.98021 16.9999 8.21729V20.2173C16.9999 20.8106 16.824 21.3906 16.4943 21.884C16.1647 22.3773 15.6961 22.7619 15.1479 22.9889C14.5998 23.216 13.9966 23.2754 13.4146 23.1596C12.8327 23.0439 12.2981 22.7582 11.8786 22.3386C11.459 21.919 11.1733 21.3845 11.0575 20.8026C10.9418 20.2206 11.0012 19.6174 11.2283 19.0692C11.4553 18.5211 11.8398 18.0525 12.3332 17.7229C12.8265 17.3932 13.4066 17.2173 13.9999 17.2173C14.2651 17.2173 14.5195 17.1119 14.707 16.9244C14.8945 16.7369 14.9999 16.4825 14.9999 16.2173C14.9999 15.9521 14.8945 15.6977 14.707 15.5102C14.5195 15.3226 14.2651 15.2173 13.9999 15.2173C13.011 15.2173 12.0443 15.5105 11.222 16.0599C10.3998 16.6093 9.75894 17.3902 9.3805 18.3039C9.00206 19.2175 8.90305 20.2228 9.09597 21.1927C9.2889 22.1626 9.7651 23.0536 10.4644 23.7528C11.1636 24.4521 12.0545 24.9283 13.0244 25.1212C13.9944 25.3141 14.9997 25.2151 15.9133 24.8367C16.8269 24.4582 17.6078 23.8174 18.1572 22.9951C18.7067 22.1729 18.9999 21.2062 18.9999 20.2173V11.4946C20.0226 12.444 21.4626 13.2173 23.3332 13.2173C23.5984 13.2173 23.8528 13.1119 24.0403 12.9244C24.2279 12.7369 24.3332 12.4825 24.3332 12.2173C24.3332 11.9521 24.2279 11.6977 24.0403 11.5102C23.8528 11.3226 23.5984 11.2173 23.3332 11.2173C22.0372 11.2173 21.0519 10.684 20.3212 9.99195C19.5746 9.28262 19.1239 8.42795 18.9479 7.90129Z" fill="#FF6996"/>
</svg>
